# xmcd
#
# Track frame offsets:
#	150
#	15535
#	33766
#	60430
#
# Disc length: 1062 seconds
#
# Revision: 0
# Processed by: cddbd v1.5.1PL2 Copyright (c) Steve Scherf et al.
# Submitted via: audiograbber 1.83.01
#
DISCID=21042404
DTITLE=Blog 27 - Hey Boy (get your ass up)
DYEAR=2006
DGENRE=R&B
TTITLE0=Hey Boy (get your ass up) Short Edit)
TTITLE1=Hey Boy (get your ass up) Extended Version)
TTITLE2=Hey Boy (get your ass up) Karaoke Version)
TTITLE3=Hey Boy (get your ass up) Video)
EXTD=
EXTT0=
EXTT1=
EXTT2=
EXTT3=
PLAYORDER=
